<mxfile host="app.diagrams.net" agent="Mozilla/5.0 (Windows NT 10.0; Win64; x64) AppleWebKit/537.36 (KHTML, like Gecko) Chrome/136.0.0.0 Safari/537.36" version="27.0.9">
  <diagram name="Página-1" id="xB3wBuizRdIcKg77pqlH">
    <mxGraphModel grid="1" page="1" gridSize="10" guides="1" tooltips="1" connect="1" arrows="1" fold="1" pageScale="1" pageWidth="827" pageHeight="1169" math="0" shadow="0">
      <root>
        <mxCell id="0" />
        <mxCell id="1" parent="0" />
        <mxCell id="hfnginYKVkvyXyo3APej-1" value="load_loopbacks(path)" style="shape=trapezoid;perimeter=trapezoidPerimeter;fixedSize=1;strokeWidth=2;whiteSpace=wrap;" vertex="1" parent="1">
          <mxGeometry x="106" y="-1090" width="208" height="39" as="geometry" />
        </mxCell>
        <mxCell id="hfnginYKVkvyXyo3APej-2" value="Abrir /app/networkinfo.json" style="whiteSpace=wrap;strokeWidth=2;" vertex="1" parent="1">
          <mxGeometry x="80" y="-1020" width="260" height="78" as="geometry" />
        </mxCell>
        <mxCell id="hfnginYKVkvyXyo3APej-3" value="data = json.load(f)" style="whiteSpace=wrap;strokeWidth=2;" vertex="1" parent="1">
          <mxGeometry x="113" y="-910" width="194" height="54" as="geometry" />
        </mxCell>
        <mxCell id="hfnginYKVkvyXyo3APej-4" value="Extraer loopbacks sin máscara:&#xa;        {nodo: ip.split(&#39;/&#39;)[0]}" style="whiteSpace=wrap;strokeWidth=2;" vertex="1" parent="1">
          <mxGeometry x="80" y="-820" width="260" height="102" as="geometry" />
        </mxCell>
        <mxCell id="hfnginYKVkvyXyo3APej-5" value="Retornar dict nodo-&gt;loopback" style="whiteSpace=wrap;strokeWidth=2;" vertex="1" parent="1">
          <mxGeometry x="80" y="-680" width="260" height="78" as="geometry" />
        </mxCell>
        <mxCell id="hfnginYKVkvyXyo3APej-6" value="" style="curved=1;startArrow=none;endArrow=block;entryX=0.5;entryY=-0.01;rounded=0;exitX=0.5;exitY=1;exitDx=0;exitDy=0;" edge="1" parent="1" source="hfnginYKVkvyXyo3APej-1" target="hfnginYKVkvyXyo3APej-2">
          <mxGeometry relative="1" as="geometry">
            <Array as="points" />
            <mxPoint x="210" y="-1060" as="sourcePoint" />
          </mxGeometry>
        </mxCell>
        <mxCell id="hfnginYKVkvyXyo3APej-7" value="" style="curved=1;startArrow=none;endArrow=block;exitX=0.5;exitY=0.99;entryX=0.5;entryY=-0.01;rounded=0;" edge="1" parent="1" source="hfnginYKVkvyXyo3APej-2" target="hfnginYKVkvyXyo3APej-3">
          <mxGeometry relative="1" as="geometry">
            <Array as="points" />
          </mxGeometry>
        </mxCell>
        <mxCell id="hfnginYKVkvyXyo3APej-8" value="" style="curved=1;startArrow=none;endArrow=block;exitX=0.5;exitY=0.99;entryX=0.5;entryY=0;rounded=0;" edge="1" parent="1" source="hfnginYKVkvyXyo3APej-3" target="hfnginYKVkvyXyo3APej-4">
          <mxGeometry relative="1" as="geometry">
            <Array as="points" />
          </mxGeometry>
        </mxCell>
        <mxCell id="hfnginYKVkvyXyo3APej-9" value="" style="curved=1;startArrow=none;endArrow=block;exitX=0.5;exitY=1;entryX=0.5;entryY=-0.01;rounded=0;" edge="1" parent="1" source="hfnginYKVkvyXyo3APej-4" target="hfnginYKVkvyXyo3APej-5">
          <mxGeometry relative="1" as="geometry">
            <Array as="points" />
          </mxGeometry>
        </mxCell>
      </root>
    </mxGraphModel>
  </diagram>
</mxfile>
